<svg width="18" height="18" viewBox="0 0 18 18" fill="none" xmlns="http://www.w3.org/2000/svg">
<g id="linkedin-letters copy">
<rect id="Rectangle" opacity="0.6" x="0.222656" y="5.61279" width="3.86307" height="11.6009" fill="white"/>
<path id="Path" opacity="0.6" d="M16.7644 6.67255C15.953 5.78674 14.8797 5.34375 13.5453 5.34375C13.0536 5.34375 12.6067 5.40423 12.2047 5.52527C11.8028 5.64622 11.4634 5.81593 11.1863 6.03447C10.9093 6.25302 10.6887 6.4559 10.5249 6.64311C10.3692 6.82094 10.2169 7.02808 10.0683 7.26241V5.61281H6.2168L6.22861 6.17478C6.23652 6.5495 6.24041 7.70446 6.24041 9.6398C6.24041 11.5753 6.23262 14.0999 6.21696 17.2138H10.0683V10.7401C10.0683 10.3422 10.111 10.0262 10.1971 9.79184C10.3611 9.39363 10.6086 9.06024 10.9405 8.7911C11.2723 8.52163 11.6838 8.38702 12.1757 8.38702C12.8466 8.38702 13.3404 8.61918 13.6565 9.08353C13.9725 9.54784 14.1306 10.1898 14.1306 11.0092V17.2135H17.9819V10.5647C17.9817 8.85539 17.5761 7.55808 16.7644 6.67255Z" fill="white"/>
<path id="Path_2" opacity="0.6" d="M2.17734 0.0288086C1.52967 0.0288086 1.00488 0.218198 0.602857 0.596608C0.20087 0.9751 0 1.45294 0 2.03058C0 2.60014 0.195089 3.07634 0.585308 3.45865C0.975403 3.841 1.49056 4.03227 2.13048 4.03227H2.15389C2.80952 4.03227 3.33832 3.84116 3.74019 3.45865C4.14205 3.07634 4.33907 2.60031 4.33132 2.03058C4.32353 1.45298 4.12438 0.9751 3.73428 0.596608C3.34423 0.218034 2.82506 0.0288086 2.17734 0.0288086Z" fill="white"/>
</g>
</svg>
