<svg width="11" height="18" viewBox="0 0 11 18" fill="none" xmlns="http://www.w3.org/2000/svg">
<path id="Fb" fill-rule="evenodd" clip-rule="evenodd" d="M9.89011 0H7.42747C4.65824 0 2.86615 1.73711 2.86615 4.42887V6.46922H0.395604C0.177118 6.46922 0 6.63683 0 6.84359V9.79555C0 10.0023 0.177118 10.1699 0.395604 10.1699H2.86615V17.6256C2.86615 17.8324 3.04327 18 3.26176 18H6.48791C6.7064 18 6.88352 17.8324 6.88352 17.6256V10.1624H9.77538C9.99387 10.1624 10.171 9.99482 10.171 9.78806V6.83611C10.1713 6.73921 10.1307 6.64621 10.0582 6.57779C9.98504 6.50907 9.88639 6.47012 9.7833 6.46922H6.8756V4.7396C6.8756 3.90661 7.08528 3.48544 8.23055 3.48544H9.89011C10.1086 3.48544 10.2857 3.31783 10.2857 3.11106V0.374376C10.2857 0.167614 10.1086 0 9.89011 0Z" fill="#3b5998"/>
</svg>
