<svg width="18" height="18" viewBox="0 0 18 18" fill="none" xmlns="http://www.w3.org/2000/svg">
<path fill-rule="evenodd" clip-rule="evenodd" d="M0.602857 0.596852C1.00488 0.218442 1.52967 0.0290527 2.17734 0.0290527C2.82506 0.0290527 3.34423 0.218278 3.73428 0.596852C4.12438 0.975344 4.32353 1.45323 4.33132 2.03082C4.33907 2.60055 4.14205 3.07659 3.74019 3.45889C3.33832 3.8414 2.80952 4.03252 2.15389 4.03252H2.13048C1.49056 4.03252 0.975403 3.84124 0.585308 3.45889C0.195089 3.07659 0 2.60039 0 2.03082C0 1.45318 0.20087 0.975344 0.602857 0.596852ZM16.7635 6.67269C15.952 5.78688 14.8787 5.34389 13.5443 5.34389C13.0526 5.34389 12.6057 5.40437 12.2037 5.52541C11.8018 5.64637 11.4624 5.81607 11.1853 6.03462C10.9083 6.25316 10.6877 6.45604 10.524 6.64325C10.3682 6.82108 10.216 7.02822 10.0674 7.26255V5.61295H6.21582L6.22763 6.17493C6.23554 6.54964 6.23944 7.7046 6.23944 9.63995C6.23944 11.5755 6.23165 14.1 6.21599 17.214H10.0674V10.7402C10.0674 10.3423 10.1101 10.0263 10.1961 9.79198C10.3601 9.39377 10.6076 9.06038 10.9395 8.79124C11.2713 8.52177 11.6829 8.38716 12.1747 8.38716C12.8456 8.38716 13.3394 8.61932 13.6556 9.08367C13.9716 9.54798 14.1296 10.1899 14.1296 11.0094V17.2136H17.981V10.5648C17.9807 8.85553 17.5752 7.55822 16.7635 6.67269ZM0.222396 5.61303H4.08547V17.2139H0.222396V5.61303Z" fill="#0077B5"/>
</svg>
