<svg width="20" height="12" viewBox="0 0 20 12" fill="none" xmlns="http://www.w3.org/2000/svg">
<path id="Path" opacity="0.3" fill-rule="evenodd" clip-rule="evenodd" d="M19.894 10.1643C19.8739 10.1203 19.8513 10.0775 19.8262 10.0361C19.4795 9.41961 18.8165 8.66346 17.8374 7.76763L17.8163 7.74776L17.8062 7.73692L17.7962 7.72699H17.7852C17.4894 7.45982 17.2077 7.178 16.9409 6.88264C16.726 6.60871 16.6775 6.33147 16.7953 6.05092C16.879 5.83901 17.1912 5.39079 17.7321 4.70628C18.0165 4.34506 18.2421 4.05397 18.4088 3.83302C19.6107 2.2581 20.1318 1.2518 19.9718 0.814118L19.9096 0.71117C19.8684 0.649762 19.7603 0.593773 19.5872 0.542299C19.3692 0.488847 19.1423 0.479935 18.9206 0.51611L15.9218 0.536881C15.8532 0.520123 15.7813 0.52231 15.7139 0.543202L15.5784 0.573906L15.5262 0.599191L15.4841 0.630798C15.44 0.659988 15.4013 0.696323 15.3696 0.738262C15.3263 0.793114 15.2914 0.853974 15.2661 0.918872C14.9546 1.7159 14.582 2.48843 14.1518 3.22979C13.8942 3.65422 13.6582 4.02206 13.4439 4.33332C13.2826 4.57693 13.1013 4.80708 12.9019 5.02144C12.7786 5.14847 12.6464 5.26676 12.5063 5.37544C12.3882 5.46574 12.2984 5.50187 12.2362 5.48832C12.1739 5.47478 12.1144 5.46123 12.0585 5.44768C11.9602 5.38437 11.8796 5.29774 11.8241 5.19573C11.7594 5.07091 11.719 4.9352 11.7051 4.79568C11.684 4.63403 11.6721 4.49587 11.6684 4.37937C11.6648 4.26288 11.6684 4.09852 11.6739 3.8863C11.6794 3.67409 11.684 3.5305 11.684 3.45465C11.684 3.19457 11.6895 2.91281 11.6996 2.60758C11.7096 2.30235 11.7188 2.06575 11.7252 1.88514C11.7316 1.70453 11.7362 1.5185 11.7362 1.31983C11.7395 1.1634 11.7272 1.00702 11.6996 0.852949C11.6756 0.739762 11.6391 0.629526 11.5906 0.524238C11.5473 0.420732 11.4728 0.332805 11.3773 0.272286C11.2689 0.208514 11.1512 0.161606 11.0284 0.133216C10.5654 0.0418821 10.0941 -0.00229845 9.62189 0.00137015C8.33079 -0.0118746 7.50148 0.0709052 7.13399 0.24971C6.984 0.327418 6.84989 0.431822 6.73842 0.557651C6.61267 0.70816 6.59496 0.790338 6.68531 0.804184C7.10103 0.865592 7.39679 1.01279 7.56986 1.24487L7.63212 1.36859C7.70321 1.51891 7.7543 1.67766 7.78413 1.84089C7.83471 2.08795 7.86533 2.33858 7.87569 2.59042C7.91073 3.01777 7.91073 3.44722 7.87569 3.87457C7.8409 4.23037 7.80793 4.50761 7.7768 4.70628C7.75539 4.87325 7.70782 5.03593 7.63579 5.18851C7.59887 5.26648 7.55665 5.34191 7.50942 5.41427C7.49575 5.43474 7.47799 5.45226 7.45723 5.46574C7.36758 5.5 7.27225 5.51745 7.17611 5.51722C7.04624 5.50479 6.92297 5.45485 6.82175 5.37363C6.66268 5.25901 6.51792 5.12624 6.39046 4.9781C6.20305 4.7574 6.03402 4.52214 5.885 4.27462C5.6976 3.9736 5.50317 3.6175 5.30172 3.20631L5.13415 2.9092C5.03037 2.71655 4.88813 2.43751 4.70744 2.07207C4.52675 1.70664 4.36711 1.35234 4.22854 1.00918C4.18179 0.876693 4.09443 0.761821 3.97856 0.680466L3.92637 0.649762C3.87544 0.612013 3.81933 0.581606 3.75971 0.559457C3.68286 0.528344 3.60269 0.505925 3.52072 0.492631L0.66746 0.51611C0.376274 0.51611 0.177571 0.58113 0.0740995 0.71117L0.0319782 0.772578C0.00748897 0.823826 -0.00323177 0.880422 0.000845129 0.936933C0.00518681 1.0322 0.0262546 1.126 0.0631114 1.21417C0.480051 2.17743 0.933007 3.10848 1.42198 4.00731C1.91095 4.90615 2.33613 5.6286 2.69752 6.17464C3.0583 6.7231 3.4264 7.24024 3.80183 7.72609C4.17726 8.21193 4.42541 8.52318 4.54628 8.65984C4.67081 8.7962 4.76238 8.89915 4.83197 8.96688L5.09294 9.21251C5.32155 9.42745 5.56644 9.62489 5.82549 9.80311C6.17139 10.0469 6.52957 10.2732 6.89866 10.4813C7.33115 10.719 7.79275 10.9011 8.27218 11.0231C8.76615 11.1607 9.27955 11.2181 9.79221 11.1929H10.989C11.1941 11.1871 11.3898 11.1067 11.5384 10.9671L11.5796 10.9157C11.615 10.8566 11.6412 10.7927 11.6575 10.726C11.6829 10.6339 11.6952 10.5388 11.6941 10.4434C11.6845 10.1765 11.7073 9.90938 11.7618 9.64778C11.7964 9.46291 11.8558 9.28342 11.9386 9.11408C11.9984 9.00298 12.0739 8.90082 12.1629 8.81065C12.2151 8.75374 12.2745 8.70366 12.3396 8.66165C12.3664 8.64776 12.3943 8.63598 12.423 8.62643C12.5896 8.57104 12.7859 8.62402 13.0117 8.78537C13.2483 8.95676 13.4618 9.15703 13.6472 9.38138C13.845 9.61678 14.0825 9.88198 14.3596 10.177C14.581 10.4196 14.8264 10.6398 15.0922 10.8344L15.3009 10.9572C15.4718 11.0531 15.6534 11.1289 15.8421 11.183C16.0289 11.2488 16.2297 11.2665 16.4254 11.2344L19.0909 11.1938C19.3036 11.2049 19.5155 11.1607 19.7054 11.0656C19.8259 11.0081 19.9191 10.9068 19.9654 10.7829C19.9936 10.6683 19.9955 10.5489 19.9709 10.4334C19.9551 10.3413 19.9293 10.2511 19.894 10.1643Z" fill="#242428"/>
</svg>
