<svg width="18" height="18" viewBox="0 0 18 18" fill="none" xmlns="http://www.w3.org/2000/svg">
<g id="linkedin-letters" opacity="0.3">
<rect id="Rectangle" x="0.222656" y="5.61328" width="3.86307" height="11.6009" fill="black"/>
<path id="Path" d="M16.7635 6.67255C15.952 5.78674 14.8787 5.34375 13.5443 5.34375C13.0526 5.34375 12.6057 5.40423 12.2037 5.52527C11.8018 5.64622 11.4624 5.81593 11.1853 6.03447C10.9083 6.25302 10.6877 6.4559 10.524 6.64311C10.3682 6.82094 10.216 7.02808 10.0674 7.26241V5.61281H6.21582L6.22763 6.17478C6.23554 6.5495 6.23944 7.70446 6.23944 9.6398C6.23944 11.5753 6.23165 14.0999 6.21598 17.2138H10.0674V10.7401C10.0674 10.3422 10.1101 10.0262 10.1961 9.79184C10.3601 9.39363 10.6076 9.06024 10.9395 8.7911C11.2713 8.52163 11.6829 8.38702 12.1747 8.38702C12.8456 8.38702 13.3394 8.61918 13.6556 9.08353C13.9716 9.54784 14.1296 10.1898 14.1296 11.0092V17.2135H17.981V10.5647C17.9807 8.85539 17.5752 7.55808 16.7635 6.67255Z" fill="black"/>
<path id="Path_2" d="M2.17734 0.0292969C1.52967 0.0292969 1.00488 0.218686 0.602857 0.597096C0.20087 0.975588 0 1.45343 0 2.03107C0 2.60063 0.195089 3.07683 0.585308 3.45914C0.975403 3.84148 1.49056 4.03276 2.13048 4.03276H2.15389C2.80952 4.03276 3.33832 3.84165 3.74019 3.45914C4.14205 3.07683 4.33907 2.6008 4.33132 2.03107C4.32353 1.45347 4.12438 0.975588 3.73428 0.597096C3.34423 0.218522 2.82506 0.0292969 2.17734 0.0292969Z" fill="black"/>
</g>
</svg>
