<svg width="200" height="49" viewBox="0 0 200 49" fill="none" xmlns="http://www.w3.org/2000/svg">
<g id="&#208;&#160;&#208;&#181;&#209;&#129;&#209;&#131;&#209;&#128;&#209;&#129; 1 Copy 2">
<path id="Path" fill-rule="evenodd" clip-rule="evenodd" d="M26.5208 12.4551V2.65867C26.5208 2.65867 26.5208 -9.73641e-06 23.9519 -9.73641e-06H9.46692C8.7661 -0.00886425 8.09251 0.271022 7.60434 0.773922C7.11616 1.27682 6.85641 1.95843 6.88608 2.65867V12.4551C6.88608 12.4551 6.88608 15.1138 9.46692 15.1138H16.0537L23.2394 22.0239V15.1138H23.9519C24.6528 15.1226 25.3264 14.8427 25.8145 14.3398C26.3027 13.8369 26.5625 13.1553 26.5328 12.4551" fill="#E5190A"/>
<path id="Path_2" fill-rule="evenodd" clip-rule="evenodd" d="M5.16184 5.62872H3.17981C0.598969 5.62872 0.598969 8.28741 0.598969 8.28741V18.0778C0.569299 18.7781 0.829051 19.4597 1.31723 19.9626C1.8054 20.4655 2.47899 20.7454 3.17981 20.7365H3.87442V27.6527L11.06 20.7365H18.5151C18.7165 20.7355 18.9172 20.7135 19.1139 20.6706L15.1978 16.8862H7.74867C5.16184 16.8862 5.16184 14.2275 5.16184 14.2275V5.62872Z" fill="#E5190A"/>
<path id="Shape" fill-rule="evenodd" clip-rule="evenodd" d="M38.6824 41.0898H32.6943L32.7063 16.3772H42.3111C47.874 16.3772 51.856 19.6287 51.856 25.1497C51.856 30.0419 47.856 34.1317 40.4788 34.1317H38.6824V41.0898ZM38.6824 21.0299H41.5506C44.7303 21.0299 45.7422 22.8263 45.7422 25.2934C45.7422 27.5988 44.4189 29.5209 40.7123 29.5209H38.6824V21.0299ZM113.772 31.5209C113.772 38.0239 109.503 41.479 103.634 41.479V41.4491C97.341 41.4491 93.9518 37.6527 93.9518 31.6647C93.9518 25.3653 97.8979 21.485 103.946 21.485C110.73 21.485 113.772 25.2994 113.772 31.5209ZM199.784 40.7784C198.098 41.2391 196.358 41.4747 194.611 41.479H194.581C186.509 41.479 183.467 38.503 183.467 31.3712C183.467 25.4311 187.449 21.515 193.916 21.515C196.025 21.4239 198.121 21.882 200 22.8443L198.527 27.0659C197.16 26.4768 195.678 26.2026 194.191 26.2635C191.778 26.2635 189.473 27.3473 189.473 31.4371C189.473 35.1138 190.347 36.8263 194.928 36.8263C196.292 36.8026 197.65 36.6401 198.982 36.3413L199.784 40.7784ZM166.868 31.5868C166.868 34.8682 167.844 36.8623 170.958 36.8623V36.8323C174.102 36.8323 174.874 34.7724 174.874 31.5209C174.874 28.473 174.03 26.1317 170.886 26.1317C167.742 26.1317 166.868 28.473 166.868 31.5868ZM170.658 41.509C176.533 41.509 180.796 38.0539 180.796 31.5509C180.796 25.3293 177.754 21.515 170.976 21.515C164.928 21.515 160.976 25.3952 160.976 31.6946C160.976 37.6826 164.365 41.479 170.658 41.479V41.509ZM145.299 36.7904C146.122 36.9125 146.952 36.9825 147.784 37V37.012C150.754 37.012 152.467 34.4251 152.467 30.8623C152.467 27.4371 151.102 26.4251 148.167 26.4251C147.191 26.4571 146.224 26.6326 145.299 26.9461V36.7904ZM139.521 48.7844H145.323V41.3173C145.576 41.3303 145.838 41.3527 146.111 41.376C146.592 41.4171 147.106 41.4611 147.664 41.4611C153.227 41.4611 158.365 38.6647 158.365 30.6826C158.365 23.9341 155.179 21.5209 149.94 21.5209C148.191 21.5209 146.096 22.7185 145.323 23.3772V22.006H139.521V48.7844ZM123.311 41.0898H117.473V22.006H135.616V41.0898H129.778V26.2694H123.311V41.0898ZM103.91 36.8623C100.802 36.8623 99.8201 34.8682 99.8201 31.5868C99.8201 28.473 100.694 26.1317 103.844 26.1317C106.994 26.1317 107.826 28.473 107.826 31.5209C107.826 34.7724 107.06 36.8323 103.91 36.8323V36.8623ZM86.2692 41.4491C88.0171 41.4448 89.7567 41.2092 91.4428 40.7485L90.6404 36.3114C89.3091 36.6102 87.9508 36.7727 86.5866 36.7964C82.0057 36.7964 81.1315 35.0838 81.1315 31.4072C81.1315 27.3173 83.4369 26.2335 85.85 26.2335C87.337 26.1727 88.8186 26.4469 90.1854 27.0359L91.6883 22.8084C89.8135 21.8625 87.7261 21.417 85.6285 21.515C79.1614 21.515 75.1794 25.4311 75.1794 31.3712C75.1794 38.503 78.2213 41.479 86.2931 41.479L86.2692 41.4491ZM65.1135 48.7844H59.5506L62.1554 41.0898H60.0596L53.4728 22.006H59.7303L63.0117 33.3293L63.8201 36.4431L64.7602 33.3293L68.5686 22.006H74.4428L65.1135 48.7844Z" fill="white"/>
</g>
</svg>
