<svg width="200" height="68" viewBox="0 0 200 68" fill="none" xmlns="http://www.w3.org/2000/svg">
    <g id="Logo">
        <path id="Path" fill-rule="evenodd" clip-rule="evenodd"
              d="M26.5213 12.455V2.65864C26.5213 2.65864 26.5213 -4.0254e-05 23.9524 -4.0254e-05H9.46741C8.76659 -0.00889477 8.093 0.270992 7.60482 0.773892C7.11665 1.27679 6.8569 1.9584 6.88657 2.65864V12.455C6.88657 12.455 6.88657 15.1137 9.46741 15.1137H16.0542L23.2399 22.0239V15.1137H23.9524C24.6533 15.1226 25.3268 14.8427 25.815 14.3398C26.3032 13.8369 26.5629 13.1553 26.5333 12.455"
              fill="#E5190A"/>
        <path id="Path_2" fill-rule="evenodd" clip-rule="evenodd"
              d="M5.16184 5.62866H3.17981C0.598969 5.62866 0.598969 8.28734 0.598969 8.28734V18.0778C0.569299 18.778 0.829051 19.4596 1.31723 19.9625C1.8054 20.4654 2.47899 20.7453 3.17981 20.7364H3.87442V27.6526L11.06 20.7364H18.5151C18.7165 20.7355 18.9172 20.7134 19.1139 20.6706L15.1978 16.8861H7.74867C5.16184 16.8861 5.16184 14.2275 5.16184 14.2275V5.62866Z"
              fill="#E5190A"/>
        <path id="Shape" fill-rule="evenodd" clip-rule="evenodd"
              d="M38.6828 41.0898H32.6948L32.7068 16.3772H42.3116C47.8745 16.3772 51.8565 19.6287 51.8565 25.1497C51.8565 30.0419 47.8565 34.1317 40.4793 34.1317H38.6828V41.0898ZM38.6828 21.0299H41.5511C44.7308 21.0299 45.7427 22.8263 45.7427 25.2934C45.7427 27.5988 44.4194 29.5209 40.7128 29.5209H38.6828V21.0299ZM113.773 31.5209C113.773 38.0239 109.503 41.479 103.635 41.479V41.4491C97.3415 41.4491 93.9523 37.6526 93.9523 31.6646C93.9523 25.3652 97.8984 21.485 103.946 21.485C110.731 21.485 113.773 25.2994 113.773 31.5209ZM199.785 40.7784C198.099 41.2391 196.359 41.4747 194.611 41.479H194.581C186.509 41.479 183.467 38.5029 183.467 31.3712C183.467 25.4311 187.449 21.5149 193.916 21.5149C196.025 21.4239 198.122 21.882 200 22.8443L198.527 27.0658C197.16 26.4768 195.679 26.2026 194.192 26.2634C191.779 26.2634 189.473 27.3473 189.473 31.4371C189.473 35.1137 190.348 36.8263 194.928 36.8263C196.293 36.8026 197.651 36.6401 198.982 36.3413L199.785 40.7784ZM166.868 31.5868C166.868 34.8682 167.845 36.8622 170.958 36.8622V36.8323C174.102 36.8323 174.874 34.7724 174.874 31.5209C174.874 28.473 174.03 26.1317 170.886 26.1317C167.743 26.1317 166.868 28.473 166.868 31.5868ZM170.659 41.5089C176.533 41.5089 180.797 38.0538 180.797 31.5508C180.797 25.3293 177.755 21.5149 170.976 21.5149C164.928 21.5149 160.976 25.3952 160.976 31.6946C160.976 37.6826 164.365 41.479 170.659 41.479V41.5089ZM145.3 36.7904C146.123 36.9125 146.953 36.9825 147.785 37V37.0119C150.755 37.0119 152.467 34.4251 152.467 30.8622C152.467 27.4371 151.102 26.4251 148.168 26.4251C147.191 26.457 146.225 26.6326 145.3 26.9461V36.7904ZM139.521 48.7844H145.324V41.3173C145.577 41.3303 145.839 41.3527 146.111 41.376C146.592 41.4171 147.107 41.461 147.665 41.461C153.228 41.461 158.365 38.6646 158.365 30.6826C158.365 23.9341 155.18 21.5209 149.94 21.5209C148.192 21.5209 146.096 22.7185 145.324 23.3772V22.0059H139.521V48.7844ZM123.312 41.0898H117.473V22.0059H135.617V41.0898H129.779V26.2694H123.312V41.0898ZM103.91 36.8622C100.803 36.8622 99.8206 34.8682 99.8206 31.5868C99.8206 28.473 100.695 26.1317 103.845 26.1317C106.994 26.1317 107.827 28.473 107.827 31.5209C107.827 34.7724 107.06 36.8323 103.91 36.8323V36.8622ZM86.2697 41.4491C88.0176 41.4447 89.7572 41.2092 91.4433 40.7485L90.6409 36.3113C89.3096 36.6101 87.9513 36.7726 86.587 36.7964C82.0062 36.7964 81.132 35.0838 81.132 31.4071C81.132 27.3173 83.4373 26.2335 85.8505 26.2335C87.3375 26.1726 88.8191 26.4469 90.1858 27.0359L91.6888 22.8083C89.814 21.8625 87.7266 21.417 85.629 21.5149C79.1619 21.5149 75.1799 25.4311 75.1799 31.3712C75.1799 38.5029 78.2218 41.479 86.2936 41.479L86.2697 41.4491ZM65.114 48.7844H59.5511L62.1559 41.0898H60.0601L53.4733 22.0059H59.7308L63.0122 33.3293L63.8206 36.4431L64.7607 33.3293L68.5691 22.0059H74.4433L65.114 48.7844Z"
              fill="white"/>
        <path id="Shape_2" fill-rule="evenodd" clip-rule="evenodd"
              d="M33.2516 65.437H32.3354V57.5269H33.6708L36.2875 64.8861L39.1977 57.5269H40.4792V65.461H39.563V59.7963L39.5929 58.5987L36.8983 65.455H35.581L33.1857 58.5987L33.2516 59.7963V65.437ZM64.5151 65.5688C65.1779 65.5777 65.8375 65.4765 66.4672 65.2694L66.3115 64.5448C65.8188 64.683 65.3131 64.7693 64.8025 64.8023C63.5331 64.8023 62.575 64.4909 62.539 62.5448H66.575V62.2215C66.575 60.1915 65.8863 59.1676 64.3774 59.1676C62.8684 59.1676 61.6468 60.0119 61.6468 62.4849C61.6468 64.8263 62.7606 65.5628 64.5331 65.5628L64.5151 65.5688ZM174.401 62.3831C174.401 64.5269 173.216 65.5688 171.617 65.5688C169.928 65.5688 168.892 64.449 168.892 62.449C168.892 60.3352 170.06 59.1736 171.695 59.1736C173.509 59.1736 174.401 60.3352 174.401 62.3831ZM169.797 62.3951C169.797 63.6466 170.24 64.8442 171.683 64.8442C173.15 64.8442 173.509 63.5149 173.509 62.3831C173.509 61.2514 173.144 59.8981 171.665 59.8981C170.186 59.8981 169.797 61.2394 169.797 62.3951ZM163.946 61.976V60.0598H165.018C165.904 60.0598 166.461 60.2634 166.461 60.976C166.461 61.5748 166.072 61.976 165.186 61.976H163.946ZM163.946 62.6227V64.7125H165.186C165.994 64.7125 166.755 64.5209 166.755 63.6945C166.755 62.8682 166.102 62.6227 165.006 62.6227H163.946ZM163.06 65.443H165.389C166.886 65.443 167.659 64.7245 167.659 63.6825C167.686 62.9629 167.172 62.3359 166.461 62.2215C167.011 62.0008 167.365 61.4605 167.347 60.8682C167.347 59.9161 166.641 59.3352 165.288 59.3352H163.072L163.06 65.443ZM159.635 65.443H158.767V60.0778H156.683V59.3293H161.719V60.0538H159.635V65.443ZM154.527 65.5388C155.003 65.5358 155.476 65.4693 155.934 65.3412L155.791 64.6227C155.397 64.7139 154.996 64.768 154.593 64.7843C152.826 64.7843 152.3 64.0119 152.3 62.3532C152.3 60.7963 153.072 59.9161 154.234 59.9161C154.723 59.9125 155.207 60.0146 155.653 60.2155L155.922 59.5209C155.403 59.2756 154.832 59.1586 154.258 59.1796C152.509 59.1796 151.395 60.4071 151.395 62.3891C151.395 64.6167 152.329 65.5388 154.503 65.5388H154.527ZM148.395 65.443H147.521V60.0778H145.443V59.3293H150.473V60.0538H148.395V65.443ZM139.138 65.443H140.018V62.7544H143.186V65.443H144.072V59.3293H143.186V61.9999H140.06V59.3293H139.18L139.138 65.443ZM135.234 59.8382C134.317 59.8382 133.653 60.5328 133.545 61.8981H136.641C136.641 60.6646 136.15 59.8382 135.234 59.8382ZM135.521 65.5748C136.18 65.5843 136.835 65.4852 137.461 65.2813L137.3 64.5568C136.807 64.6961 136.301 64.7824 135.791 64.8143C134.527 64.8143 133.563 64.5029 133.533 62.5568H137.569V62.2334C137.569 60.2035 136.88 59.1796 135.365 59.1796C133.85 59.1796 132.641 60.0239 132.641 62.4969C132.641 64.8382 133.755 65.5748 135.521 65.5748ZM128.743 65.443H127.809L127.862 59.3293H131.659V60.0538H128.743V65.443ZM122.826 64.8442C122.522 64.8936 122.213 64.7947 121.994 64.578C121.775 64.3613 121.673 64.053 121.719 63.7484C121.719 63.1496 122.246 62.6766 123.198 62.6406L124.665 62.5867V64.1736C124.114 64.539 123.484 64.7688 122.826 64.8442ZM124.731 64.7664C124.137 65.2723 123.385 65.5523 122.605 65.5568L122.581 65.5269C122.107 65.5807 121.634 65.416 121.296 65.0793C120.959 64.7426 120.792 64.2704 120.844 63.7963C120.844 62.3113 122.186 61.964 123.186 61.964H124.641V61.1496C124.641 60.1736 124.156 59.9819 123.072 59.9819C122.559 60.0096 122.052 60.1042 121.563 60.2634L121.371 59.5688C121.999 59.3383 122.661 59.2188 123.329 59.2155C124.683 59.2155 125.497 59.6586 125.497 60.8562V64.2454C125.497 64.7125 125.826 64.8442 126.096 64.8442L126.036 65.5388H125.88C125.377 65.5388 124.797 65.3113 124.731 64.7664ZM113.449 61.8981C113.563 60.5328 114.222 59.8382 115.144 59.8382C116.066 59.8382 116.551 60.6646 116.551 61.8981H113.449ZM117.365 65.2813C116.741 65.4856 116.088 65.5847 115.431 65.5748C113.665 65.5748 112.545 64.8382 112.545 62.4969C112.545 60.0239 113.767 59.1796 115.276 59.1796C116.785 59.1796 117.479 60.2035 117.479 62.2334V62.5568H113.443C113.473 64.5029 114.437 64.8143 115.701 64.8143C116.211 64.7818 116.717 64.6954 117.21 64.5568L117.365 65.2813ZM108.587 64.8502C107.144 64.8502 106.695 63.6526 106.695 62.4011C106.695 61.2454 107.084 59.9041 108.563 59.9041C110.042 59.9041 110.413 61.2574 110.413 62.3891C110.413 63.5209 110.054 64.8502 108.587 64.8502ZM111.306 62.3891C111.306 64.5328 110.12 65.5748 108.521 65.5748C106.832 65.5748 105.791 64.455 105.791 62.455C105.791 60.3412 106.964 59.1796 108.599 59.1796C110.413 59.1796 111.306 60.3412 111.306 62.3891ZM100.844 61.9819V60.0658H101.922C102.803 60.0658 103.365 60.2694 103.365 60.9819C103.365 61.5807 102.97 61.9819 102.09 61.9819H100.844ZM100.844 62.6287V64.7185H102.09C102.892 64.7185 103.653 64.5269 103.653 63.7005C103.653 62.8742 103.006 62.6287 101.91 62.6287H100.844ZM99.9642 65.449H102.288C103.791 65.449 104.557 64.7304 104.557 63.6885C104.584 62.9689 104.07 62.3419 103.359 62.2275C103.908 62.0063 104.26 61.4654 104.24 60.8742C104.24 59.9221 103.539 59.3412 102.18 59.3412H99.9702L99.9642 65.449ZM93.6887 62.4011C93.6887 63.6526 94.1319 64.8502 95.575 64.8502C97.042 64.8502 97.4013 63.5209 97.4013 62.3891C97.4013 61.2574 97.036 59.9041 95.557 59.9041C94.078 59.9041 93.6887 61.2454 93.6887 62.4011ZM95.5091 65.5748C97.1079 65.5748 98.2935 64.5328 98.2935 62.3891C98.2935 60.3412 97.4013 59.1796 95.5869 59.1796C93.9522 59.1796 92.7786 60.3412 92.7786 62.455C92.7786 64.455 93.8205 65.5748 95.5091 65.5748ZM88.9103 65.437H88.0241V59.3293H91.8265V60.0478H88.9103V65.437ZM81.0121 65.437H81.8983V62.7484H85.0301V65.437H85.9163V59.3293H85.0301V61.9999H81.8684V59.3293H80.9822L81.0121 65.437ZM74.6588 65.437H73.7786V59.3352H74.6588V63.5269V64.2993L75.1319 63.5209L78.072 59.3293H78.9522V65.467H78.072V61.2754V60.5029L77.5989 61.2873L74.6588 65.437ZM69.4792 65.437H70.3534V60.0478H72.4313V59.3293H67.4013V60.0778H69.4612L69.4792 65.437ZM64.2217 59.8322C63.3055 59.8322 62.6468 60.5269 62.5331 61.8921H65.6348C65.6348 60.6586 65.1378 59.8322 64.2217 59.8322ZM56.7905 65.431H55.9043L55.8744 59.3293H56.7905V65.431ZM60.6348 65.5149L60.8145 64.8562C60.2253 64.6189 59.712 64.2255 59.3295 63.7185L58.0301 62.2215L60.545 59.3233H59.4911L57.0181 62.2754L58.7726 64.4011C59.581 65.3592 60.1917 65.5089 60.6049 65.5269L60.6348 65.5149ZM50.036 64.7065C50.4568 64.7843 50.8836 64.8244 51.3115 64.8263L51.3354 64.7843C52.6708 64.7843 53.3414 63.6646 53.3414 62.3891C53.3414 61.1137 53.0001 59.9161 51.545 59.9161C50.9988 59.982 50.4789 60.1883 50.036 60.5149V64.7065ZM49.1798 67.8622H50.06V65.4191C50.4718 65.4863 50.8883 65.5204 51.3055 65.5209C52.8384 65.5209 54.2337 64.7185 54.2337 62.1676C54.2337 60.2634 53.3414 59.1736 51.7486 59.1736C51.1342 59.2127 50.5458 59.436 50.06 59.8143V59.3113H49.1558L49.1798 67.8622ZM43.3652 64.5062C43.5842 64.7228 43.8936 64.8218 44.1977 64.7724C44.8548 64.697 45.4848 64.4672 46.036 64.1017V62.5149L44.569 62.5688C43.6169 62.6047 43.0899 63.0778 43.0899 63.6766C43.0439 63.9812 43.1461 64.2895 43.3652 64.5062ZM43.9762 65.4849C44.7534 65.4919 45.5081 65.2247 46.1079 64.7304C46.1738 65.2754 46.7546 65.5029 47.2576 65.5029H47.4133L47.4732 64.8083C47.2037 64.8083 46.8744 64.6766 46.8744 64.2095V60.8203C46.8744 59.6227 46.06 59.1796 44.7067 59.1796C44.0385 59.1828 43.3759 59.3024 42.7486 59.5328L42.9402 60.2275C43.4288 60.0682 43.9361 59.9736 44.4492 59.946C45.5331 59.946 46.0181 60.1376 46.0181 61.1137V61.9281H44.563C43.569 61.9281 42.2277 62.2754 42.2277 63.7604C42.1734 64.2339 42.3383 64.7063 42.6753 65.0433C43.0123 65.3803 43.4847 65.5452 43.9582 65.4909L43.9762 65.4849Z"
              fill="white"/>
    </g>
</svg>
