<svg width="180" height="61" viewBox="0 0 180 61" fill="none" xmlns="http://www.w3.org/2000/svg">
    <g id="&#208;&#160;&#208;&#181;&#209;&#129;&#209;&#131;&#209;&#128;&#209;&#129; 1 Copy 2">
        <path id="Path" fill-rule="evenodd" clip-rule="evenodd"
              d="M23.8686 11.1731V2.38518C23.8686 2.38518 23.8686 0.000182898 21.5567 0.000182898H8.52013C7.88939 -0.00776012 7.28316 0.243315 6.8438 0.694445C6.40445 1.14558 6.17067 1.75702 6.19737 2.38518V11.1731C6.19737 11.1731 6.19737 13.5581 8.52013 13.5581H14.4483L20.9153 19.757V13.5581H21.5567C22.1874 13.5661 22.7936 13.315 23.233 12.8639C23.6723 12.4127 23.9061 11.8013 23.8794 11.1731"
              fill="#E5190A"/>
        <path id="Path_2" fill-rule="evenodd" clip-rule="evenodd"
              d="M4.64576 5.04932H2.86192C0.53917 5.04932 0.53917 7.43431 0.53917 7.43431V16.2169C0.512467 16.8451 0.746244 17.4565 1.1856 17.9076C1.62496 18.3588 2.23119 18.6098 2.86192 18.6019H3.48707V24.8061L9.95414 18.6019H16.6637C16.8449 18.601 17.0256 18.5812 17.2026 18.5428L13.6781 15.1479H6.9739C4.64576 15.1479 4.64576 12.7629 4.64576 12.7629V5.04932Z"
              fill="#E5190A"/>
        <path id="Shape" fill-rule="evenodd" clip-rule="evenodd"
              d="M34.815 36.86H29.4258L29.4366 14.6914H38.0809C43.0875 14.6914 46.6713 17.6082 46.6713 22.5608C46.6713 26.9494 43.0713 30.6182 36.4318 30.6182H34.815V36.86ZM34.815 18.8651H37.3964C40.2581 18.8651 41.1689 20.4766 41.1689 22.6897C41.1689 24.7578 39.9779 26.4821 36.6419 26.4821H34.815V18.8651ZM102.396 28.2762C102.396 34.1098 98.5533 37.2092 93.2719 37.2092V37.1823C87.6078 37.1823 84.5575 33.7767 84.5575 28.4051C84.5575 22.7542 88.109 19.2734 93.5521 19.2734C99.6581 19.2734 102.396 22.6951 102.396 28.2762ZM179.807 36.5807C178.289 36.994 176.723 37.2053 175.15 37.2092H175.123C167.859 37.2092 165.121 34.5395 165.121 28.1419C165.121 22.8133 168.705 19.3002 174.525 19.3002C176.423 19.2186 178.31 19.6295 180.001 20.4927L178.675 24.2797C177.445 23.7513 176.111 23.5053 174.773 23.5599C172.601 23.5599 170.526 24.5322 170.526 28.201C170.526 31.4992 171.313 33.0355 175.436 33.0355C176.664 33.0142 177.886 32.8684 179.084 32.6004L179.807 36.5807ZM150.182 28.3353C150.182 31.2789 151.061 33.0677 153.863 33.0677V33.0408C156.692 33.0408 157.387 31.193 157.387 28.2762C157.387 25.5421 156.628 23.4418 153.798 23.4418C150.969 23.4418 150.182 25.5421 150.182 28.3353ZM153.593 37.2361C158.88 37.2361 162.717 34.1366 162.717 28.3031C162.717 22.722 159.98 19.3002 153.879 19.3002C148.436 19.3002 144.879 22.7811 144.879 28.432C144.879 33.8036 147.929 37.2092 153.593 37.2092V37.2361ZM130.77 33.0032C131.511 33.1128 132.258 33.1756 133.007 33.1912V33.202C135.68 33.202 137.221 30.8814 137.221 27.6853C137.221 24.6128 135.992 23.705 133.352 23.705C132.473 23.7336 131.603 23.8911 130.77 24.1723V33.0032ZM125.569 43.7626H130.792V37.0642C131.02 37.0758 131.255 37.0959 131.5 37.1168L131.5 37.1168C131.934 37.1537 132.396 37.1931 132.899 37.1931C137.905 37.1931 142.529 34.6845 142.529 27.5242C142.529 21.4704 139.662 19.3056 134.947 19.3056C133.373 19.3056 131.487 20.3799 130.792 20.9708V19.7407H125.569V43.7626ZM110.981 36.86H105.726V19.7407H122.056V36.86H116.801V23.5653H110.981V36.86ZM93.5198 33.0677C90.7228 33.0677 89.839 31.2789 89.839 28.3353C89.839 25.5421 90.6258 23.4418 93.4605 23.4418C96.2952 23.4418 97.0443 25.5421 97.0443 28.2762C97.0443 31.193 96.3545 33.0408 93.5198 33.0408V33.0677ZM77.6431 37.1823C79.2163 37.1785 80.7819 36.9671 82.2994 36.5539L81.5773 32.5735C80.3791 32.8415 79.1566 32.9873 77.9288 33.0086C73.806 33.0086 73.0192 31.4723 73.0192 28.1741C73.0192 24.5053 75.094 23.5331 77.2659 23.5331C78.6042 23.4785 79.9377 23.7245 81.1677 24.2529L82.5204 20.4605C80.833 19.612 78.9544 19.2124 77.0665 19.3002C71.2461 19.3002 67.6623 22.8133 67.6623 28.1419C67.6623 34.5395 70.4 37.2092 77.6647 37.2092L77.6431 37.1823ZM58.603 43.7626H53.5964L55.9408 36.86H54.0545L48.1264 19.7407H53.7581L56.7114 29.8984L57.439 32.6917L58.2851 29.8984L61.7126 19.7407H66.9994L58.603 43.7626Z"
              fill="#242428"/>
        <path id="Shape_2" fill-rule="evenodd" clip-rule="evenodd"
              d="M29.9261 58.7014H29.1016V51.6055H30.3034L32.6584 58.2072L35.2776 51.6055H36.4309V58.7229H35.6064V53.6413L35.6333 52.567L33.2081 58.7175H32.0225L29.8668 52.567L29.9261 53.6413V58.7014ZM58.0632 58.8195C58.6597 58.8276 59.2534 58.7368 59.8201 58.551L59.68 57.901C59.2366 58.0249 58.7815 58.1023 58.3219 58.132C57.1794 58.132 56.3171 57.8527 56.2848 56.1069H59.9171V55.8168C59.9171 53.9958 59.2974 53.0773 57.9393 53.0773C56.5812 53.0773 55.4818 53.8347 55.4818 56.0532C55.4818 58.1535 56.4842 58.8142 58.0794 58.8142L58.0632 58.8195ZM156.961 55.9618C156.961 57.8849 155.894 58.8195 154.455 58.8195C152.935 58.8195 152.003 57.815 152.003 56.0209C152.003 54.1248 153.054 53.0827 154.525 53.0827C156.158 53.0827 156.961 54.1248 156.961 55.9618ZM152.817 55.9726C152.817 57.0953 153.215 58.1696 154.514 58.1696C155.835 58.1696 156.158 56.9771 156.158 55.9618C156.158 54.9466 155.829 53.7326 154.498 53.7326C153.167 53.7326 152.817 54.9359 152.817 55.9726ZM147.551 55.5966V53.8777H148.516C149.314 53.8777 149.815 54.0603 149.815 54.6995C149.815 55.2367 149.464 55.5966 148.667 55.5966H147.551ZM147.551 56.1767V58.0514H148.667C149.394 58.0514 150.079 57.8795 150.079 57.1382C150.079 56.3969 149.491 56.1767 148.505 56.1767H147.551ZM146.754 58.7067H148.85C150.197 58.7067 150.893 58.0621 150.893 57.1275C150.917 56.4819 150.455 55.9195 149.815 55.8168C150.31 55.6188 150.628 55.1341 150.612 54.6028C150.612 53.7487 149.976 53.2277 148.758 53.2277H146.764L146.754 58.7067ZM143.671 58.7067H142.89V53.8938H141.014V53.2223H145.546V53.8723H143.671V58.7067ZM139.074 58.7927C139.502 58.79 139.928 58.7303 140.34 58.6154L140.211 57.9708C139.857 58.0526 139.496 58.1012 139.133 58.1159C137.543 58.1159 137.069 57.4229 137.069 55.935C137.069 54.5384 137.764 53.7487 138.81 53.7487C139.25 53.7455 139.686 53.8371 140.087 54.0173L140.33 53.3942C139.862 53.1742 139.348 53.0692 138.832 53.088C137.258 53.088 136.255 54.1892 136.255 55.9672C136.255 57.9655 137.096 58.7927 139.052 58.7927H139.074ZM133.555 58.7067H132.769V53.8938H130.899V53.2223H135.426V53.8723H133.555V58.7067ZM125.224 58.7067H126.016V56.2949H128.867V58.7067H129.664V53.2223H128.867V55.6181H126.054V53.2223H125.261L125.224 58.7067ZM121.71 53.6789C120.885 53.6789 120.287 54.302 120.19 55.5267H122.976C122.976 54.4202 122.535 53.6789 121.71 53.6789ZM121.969 58.8249C122.561 58.8335 123.151 58.7445 123.715 58.5617L123.569 57.9117C123.126 58.0367 122.671 58.1141 122.211 58.1427C121.074 58.1427 120.206 57.8634 120.179 56.1176H123.812V55.8276C123.812 54.0066 123.192 53.088 121.829 53.088C120.465 53.088 119.376 53.8454 119.376 56.0639C119.376 58.1642 120.379 58.8249 121.969 58.8249ZM115.868 58.7067H115.027L115.076 53.2223H118.493V53.8723H115.868V58.7067ZM110.543 58.1696C110.27 58.2139 109.991 58.1251 109.794 57.9308C109.597 57.7364 109.505 57.4598 109.546 57.1866C109.546 56.6494 110.021 56.2251 110.878 56.1928L112.198 56.1445V57.568C111.702 57.8958 111.135 58.102 110.543 58.1696ZM112.257 58.0997C111.723 58.5536 111.046 58.8047 110.344 58.8088L110.323 58.7819C109.896 58.8302 109.471 58.6825 109.166 58.3804C108.862 58.0784 108.713 57.6549 108.76 57.2295C108.76 55.8974 109.967 55.5858 110.867 55.5858H112.176V54.8553C112.176 53.9797 111.74 53.8078 110.764 53.8078C110.303 53.8326 109.846 53.9175 109.406 54.0603L109.234 53.4372C109.798 53.2305 110.395 53.1232 110.996 53.1203C112.214 53.1203 112.947 53.5178 112.947 54.5921V57.6324C112.947 58.0514 113.243 58.1696 113.486 58.1696L113.432 58.7927H113.292C112.839 58.7927 112.317 58.5886 112.257 58.0997ZM102.104 55.5267C102.206 54.302 102.799 53.6789 103.629 53.6789C104.459 53.6789 104.896 54.4202 104.896 55.5267H102.104ZM105.629 58.5617C105.067 58.7449 104.479 58.8339 103.888 58.8249C102.298 58.8249 101.29 58.1642 101.29 56.0639C101.29 53.8454 102.39 53.088 103.748 53.088C105.106 53.088 105.731 54.0066 105.731 55.8276V56.1176H102.099C102.126 57.8634 102.993 58.1427 104.13 58.1427C104.59 58.1135 105.045 58.0361 105.488 57.9117L105.629 58.5617ZM97.7279 58.1749C96.4291 58.1749 96.0249 57.1006 96.0249 55.978C96.0249 54.9412 96.3752 53.738 97.7064 53.738C99.0375 53.738 99.3716 54.952 99.3716 55.9672C99.3716 56.9825 99.0483 58.1749 97.7279 58.1749ZM100.175 55.9672C100.175 57.8903 99.1076 58.8249 97.6686 58.8249C96.1489 58.8249 95.2111 57.8204 95.2111 56.0263C95.2111 54.1301 96.2674 53.088 97.7387 53.088C99.3716 53.088 100.175 54.1301 100.175 55.9672ZM90.7596 55.6019V53.883H91.7297C92.5219 53.883 93.0285 54.0657 93.0285 54.7049C93.0285 55.242 92.6728 55.6019 91.8806 55.6019H90.7596ZM90.7596 56.1821V58.0568H91.8806C92.6028 58.0568 93.2872 57.8849 93.2872 57.1436C93.2872 56.4023 92.7052 56.1821 91.7189 56.1821H90.7596ZM89.9674 58.7121H92.0584C93.4111 58.7121 94.101 58.0675 94.101 57.1329C94.1255 56.4873 93.663 55.9249 93.0231 55.8222C93.517 55.6238 93.8336 55.1386 93.8153 54.6082C93.8153 53.7541 93.1848 53.2331 91.9614 53.2331H89.9728L89.9674 58.7121ZM84.3195 55.978C84.3195 57.1006 84.7183 58.1749 86.0171 58.1749C87.3375 58.1749 87.6608 56.9825 87.6608 55.9672C87.6608 54.952 87.3321 53.738 86.001 53.738C84.6698 53.738 84.3195 54.9412 84.3195 55.978ZM85.9579 58.8249C87.3968 58.8249 88.4638 57.8903 88.4638 55.9672C88.4638 54.1301 87.6608 53.088 86.0279 53.088C84.5567 53.088 83.5004 54.1301 83.5004 56.0263C83.5004 57.8204 84.4381 58.8249 85.9579 58.8249ZM80.0189 58.7014H79.2213V53.2223H82.6435V53.8669H80.0189V58.7014ZM72.9105 58.7014H73.7081V56.2895H76.5267V58.7014H77.3243V53.2223H76.5267V55.6181H73.6812V53.2223H72.8836L72.9105 58.7014ZM67.1926 58.7014H66.4004V53.2277H67.1926V56.9878V57.6808L67.6183 56.9825L70.2644 53.2223H71.0567V58.7282H70.2644V54.9681V54.2752L69.8387 54.9788L67.1926 58.7014ZM62.5309 58.7014H63.3177V53.8669H65.1878V53.2223H60.6608V53.8938H62.5147L62.5309 58.7014ZM57.7992 53.6735C56.9746 53.6735 56.3818 54.2966 56.2794 55.5214H59.071C59.071 54.4148 58.6237 53.6735 57.7992 53.6735ZM51.1111 58.696H50.3135L50.2866 53.2223H51.1111V58.696ZM54.571 58.7712L54.7327 58.1803C54.2025 57.9674 53.7404 57.6146 53.3962 57.1597L52.2267 55.8168L54.4902 53.217H53.5417L51.3159 55.8652L52.895 57.7721C53.6225 58.6315 54.1722 58.7658 54.5441 58.7819L54.571 58.7712ZM45.0321 58.046C45.4108 58.1158 45.7949 58.1518 46.18 58.1535L46.2016 58.1159C47.4034 58.1159 48.007 57.1114 48.007 55.9672C48.007 54.8231 47.6998 53.7487 46.3902 53.7487C45.8985 53.8079 45.4307 53.993 45.0321 54.2859V58.046ZM44.2614 60.8769H45.0537V58.6853C45.4243 58.7456 45.7991 58.7761 46.1746 58.7766C47.5543 58.7766 48.8099 58.0568 48.8099 55.7685C48.8099 54.0603 48.007 53.0827 46.5734 53.0827C46.0204 53.1178 45.4909 53.3181 45.0537 53.6574V53.2062H44.2399L44.2614 60.8769ZM39.0283 57.8663C39.2255 58.0607 39.5039 58.1494 39.7776 58.1051C40.369 58.0375 40.936 57.8313 41.4321 57.5035V56.08L40.1117 56.1284C39.2549 56.1606 38.7806 56.585 38.7806 57.1221C38.7391 57.3954 38.8312 57.672 39.0283 57.8663ZM39.5782 58.7443C40.2777 58.7506 40.957 58.5109 41.4968 58.0675C41.5561 58.5563 42.0788 58.7605 42.5315 58.7605H42.6716L42.7255 58.1373C42.483 58.1373 42.1866 58.0192 42.1866 57.6002V54.5599C42.1866 53.4855 41.4537 53.088 40.2357 53.088C39.6343 53.091 39.038 53.1982 38.4734 53.405L38.6459 54.0281C39.0856 53.8852 39.5422 53.8004 40.004 53.7756C40.9794 53.7756 41.4159 53.9475 41.4159 54.8231V55.5536H40.1064C39.2117 55.5536 38.0046 55.8652 38.0046 57.1973C37.9558 57.6221 38.1041 58.0459 38.4074 58.3482C38.7107 58.6505 39.1359 58.7984 39.562 58.7497L39.5782 58.7443Z"
              fill="#242428"/>
    </g>
</svg>
