<svg width="32" height="24" viewBox="0 0 32 24" fill="none" xmlns="http://www.w3.org/2000/svg">
    <path id="mail" fill-rule="evenodd" clip-rule="evenodd"
          d="M0 0H32V24H31.003C31.0011 24 30.9993 24 30.9974 24H1.00256H0.997037H0V0ZM31 22.7407V1.68394L20.8574 11.1503C20.8639 11.1569 20.8701 11.1637 20.8763 11.1707L31 22.7407ZM20.1265 11.8325L29.8981 23H2.10188L11.8735 11.8325L16 15.6839L20.1265 11.8325ZM1 1.68394L11.1426 11.1503C11.1361 11.1569 11.1298 11.1637 11.1237 11.1707L1 22.7407V1.68394ZM1.7328 1L16 14.3161L30.2672 1H1.7328Z"
          fill="#7A7A7C"/>
</svg>
