<svg width="32" height="32" viewBox="0 0 32 32" fill="none" xmlns="http://www.w3.org/2000/svg">
    <path id="Path Copy" fill-rule="evenodd" clip-rule="evenodd"
          d="M32 25.2727C32.0005 25.0599 31.9776 24.9011 31.9319 24.7941C31.8414 24.5214 31.2655 24.1196 30.2047 23.5898C29.9173 23.4228 29.5078 23.1958 28.9779 22.9079C28.4476 22.62 27.9662 22.3547 27.5347 22.1122C27.1022 21.8698 26.6971 21.635 26.3186 21.4081C26.2581 21.3626 26.0687 21.2302 25.7505 21.01C25.432 20.7905 25.1634 20.6276 24.9433 20.5213C24.7237 20.4157 24.5076 20.3625 24.2955 20.3625C23.9925 20.3625 23.614 20.5785 23.1596 21.01C22.7052 21.4421 22.2884 21.9115 21.9098 22.4195C21.5311 22.9273 21.1295 23.3966 20.7057 23.8284C20.2812 24.2604 19.9324 24.4762 19.66 24.4762C19.5232 24.4762 19.3527 24.4381 19.1484 24.3629C18.9441 24.2872 18.7887 24.2223 18.682 24.17C18.5763 24.1166 18.3949 24.0109 18.1371 23.8513C17.8789 23.6922 17.7353 23.605 17.705 23.5898C15.6293 22.438 13.849 21.1198 12.3639 19.6355C10.8793 18.1503 9.56089 16.3703 8.40938 14.2944C8.39425 14.2641 8.30692 14.1201 8.14795 13.8626C7.98873 13.605 7.88262 13.4234 7.8296 13.317C7.77658 13.2111 7.71218 13.0557 7.63655 12.8512C7.56093 12.6467 7.52295 12.4764 7.52295 12.3399C7.52295 12.0673 7.73893 11.7186 8.1708 11.2944C8.60258 10.8703 9.07243 10.4686 9.57984 10.0901C10.0877 9.71163 10.557 9.29483 10.989 8.84046C11.4208 8.38585 11.6367 8.00726 11.6367 7.7043C11.6367 7.49232 11.5836 7.2762 11.4777 7.05657C11.3716 6.83647 11.2088 6.5679 10.989 6.24957C10.7691 5.9314 10.6365 5.74218 10.591 5.68129C10.364 5.30278 10.1294 4.89752 9.88665 4.46568C9.64392 4.03392 9.37899 3.55265 9.09097 3.02242C8.80319 2.49242 8.57608 2.08319 8.40922 1.79535C7.87919 0.734967 7.47774 0.158966 7.20492 0.0683783C7.09881 0.0229254 6.93959 0 6.72768 0C6.31834 0 5.78433 0.0756221 5.12527 0.227344C4.46596 0.378827 3.94716 0.537713 3.56831 0.704639C2.81069 1.02265 2.00769 1.94683 1.15908 3.47686C0.386333 4.90079 0 6.31015 0 7.7039C0 8.11266 0.0265092 8.51035 0.0795275 8.89706C0.132546 9.28337 0.227278 9.71903 0.363805 10.204C0.500092 10.6887 0.610029 11.0489 0.693139 11.2834C0.776329 11.518 0.931642 11.9384 1.159 12.5447C1.38604 13.1508 1.52257 13.5218 1.56802 13.6581C2.09828 15.143 2.7271 16.4687 3.45431 17.6354C4.65081 19.5747 6.28363 21.5788 8.35182 23.647C10.4201 25.7151 12.424 27.3477 14.3635 28.5446C15.5302 29.2717 16.8563 29.9004 18.3411 30.431C18.4775 30.4763 18.8486 30.6125 19.4545 30.8403C20.0606 31.0675 20.4812 31.2228 20.7158 31.3061C20.9506 31.3895 21.3108 31.4995 21.7952 31.6361C22.2807 31.7726 22.716 31.8673 23.1023 31.9207C23.4889 31.973 23.8867 32 24.2955 32C25.6893 32 27.0988 31.6135 28.5231 30.8408C30.053 29.9926 30.977 29.1895 31.2952 28.4314C31.4626 28.0529 31.6211 27.534 31.7726 26.8747C31.9245 26.2158 32 25.6819 32 25.2727ZM29.7022 24.4544C30.2483 24.7294 30.6182 24.9399 30.8602 25.1086C30.9167 25.1481 30.9634 25.1832 30.9996 25.2128C30.9997 25.2282 31 25.2475 31 25.2704C31 25.5961 30.9342 26.06 30.7981 26.65C30.6588 27.2564 30.5177 27.7171 30.3807 28.0269C30.1634 28.5442 29.3887 29.2175 28.0382 29.9663C26.763 30.658 25.5156 31 24.2955 31C23.9344 31 23.5814 30.9764 23.2364 30.9297C22.9009 30.8834 22.5094 30.7981 22.066 30.6734C21.6001 30.5421 21.2592 30.4379 21.0507 30.3638C20.8225 30.2828 20.4055 30.1288 19.8054 29.9039C19.1937 29.6739 18.8119 29.5336 18.6556 29.4818C17.2571 28.9817 15.9955 28.3834 14.8924 27.696C13.02 26.5405 11.0755 24.9563 9.05889 22.9399C7.04246 20.9234 5.45814 18.9787 4.30536 17.1103C3.61478 16.0023 3.01661 14.7411 2.50978 13.3218C2.46646 13.1912 2.33274 12.8273 2.09545 12.1939C1.86885 11.5896 1.71583 11.1754 1.63567 10.9492C1.56138 10.7396 1.457 10.3976 1.32648 9.93332C1.20171 9.49012 1.11658 9.09872 1.07024 8.76109C1.02348 8.42005 1 8.06772 1 7.7039C1 6.48356 1.34194 5.23645 2.038 3.95384C2.7828 2.61105 3.45611 1.83626 3.95535 1.6267C4.28374 1.48218 4.74552 1.34065 5.34919 1.20195C5.94064 1.06579 6.4046 1 6.72768 1C6.74674 1 6.76339 1.00024 6.77735 1.00045C6.78035 1.00049 6.78322 1.00053 6.78597 1.00057C6.81563 1.03678 6.85083 1.08349 6.89033 1.14014C7.05898 1.38202 7.26951 1.75185 7.51474 2.24245C7.7031 2.57121 7.92435 2.96954 8.21217 3.4996C8.51259 4.05266 8.77714 4.5327 9.01495 4.95572C9.26472 5.40011 9.50374 5.81271 9.73345 6.19567L9.79015 6.28014C9.82501 6.32675 9.95702 6.51525 10.1663 6.81808C10.3595 7.09794 10.4967 7.32433 10.5768 7.4906C10.6198 7.57969 10.6367 7.64854 10.6367 7.7043C10.6367 7.69951 10.6276 7.71195 10.6078 7.73933C10.5611 7.80382 10.4544 7.95123 10.2639 8.15178C9.87011 8.56601 9.44308 8.94485 8.98222 9.28836C8.43912 9.69349 7.93485 10.1245 7.47012 10.5809C6.86289 11.1774 6.52295 11.7261 6.52295 12.3399C6.52295 12.6113 6.58523 12.8914 6.69863 13.1981C6.78583 13.4339 6.86293 13.6199 6.93532 13.7646C7.0048 13.9039 7.1216 14.104 7.29724 14.3883C7.35225 14.4774 7.40228 14.559 7.44046 14.6213C7.4888 14.7001 7.51813 14.748 7.51449 14.7407C8.72967 16.9333 10.1034 18.7885 11.6567 20.3424C13.2103 21.8953 15.0655 23.2688 17.2198 24.4642C17.2441 24.4773 17.4062 24.5755 17.6125 24.7026C17.8871 24.8726 18.0909 24.9917 18.2311 25.0626C18.3862 25.1387 18.5728 25.2161 18.8009 25.3006C19.1096 25.4142 19.3889 25.4762 19.66 25.4762C20.2737 25.4762 20.8225 25.1363 21.419 24.5293C21.8765 24.0631 22.3073 23.5592 22.7114 23.0173C23.055 22.5562 23.4339 22.1292 23.8487 21.7347C24.0484 21.5451 24.1954 21.4385 24.26 21.3917C24.2877 21.3716 24.3003 21.3625 24.2955 21.3625C24.3512 21.3625 24.4205 21.3795 24.5099 21.4225C24.6751 21.5022 24.9018 21.6396 25.183 21.8334C25.4973 22.0509 25.6754 22.1756 25.7179 22.2076L25.8044 22.2657C26.1959 22.5005 26.6099 22.7402 27.0457 22.9845C27.478 23.2274 27.9628 23.4947 28.5008 23.7868C29.0435 24.0816 29.4347 24.2989 29.7022 24.4544Z"
          fill="#7A7A7C"/>
</svg>
